<?xml version="1.0" encoding="UTF-8" standalone="no"?>
<!-- Created with Inkscape (http://www.inkscape.org/) -->

<svg
   width="68.429344mm"
   height="46.069481mm"
   viewBox="0 0 68.429344 46.069481"
   version="1.1"
   id="svg5"
   xml:space="preserve"
   inkscape:version="1.2.2 (b0a8486541, 2022-12-01)"
   sodipodi:docname="typewriter-logo.svg"
   xmlns:inkscape="http://www.inkscape.org/namespaces/inkscape"
   xmlns:sodipodi="http://sodipodi.sourceforge.net/DTD/sodipodi-0.dtd"
   xmlns="http://www.w3.org/2000/svg"
   xmlns:svg="http://www.w3.org/2000/svg"><sodipodi:namedview
     id="namedview7"
     pagecolor="#ffffff"
     bordercolor="#000000"
     borderopacity="0.25"
     inkscape:showpageshadow="2"
     inkscape:pageopacity="0.0"
     inkscape:pagecheckerboard="0"
     inkscape:deskcolor="#d1d1d1"
     inkscape:document-units="mm"
     showgrid="false"
     inkscape:zoom="3.0003928"
     inkscape:cx="98.820394"
     inkscape:cy="91.82131"
     inkscape:window-width="1854"
     inkscape:window-height="1011"
     inkscape:window-x="66"
     inkscape:window-y="32"
     inkscape:window-maximized="1"
     inkscape:current-layer="layer1" /><defs
     id="defs2" /><g
     inkscape:label="Layer 1"
     inkscape:groupmode="layer"
     id="layer1"
     transform="translate(-38.950387,-22.830966)"><path
       style="fill:#000000;stroke-width:1"
       d="M 84.425326,68.851012 C 84.279568,68.82567 83.52068,68.689026 82.738903,68.547363 81.957126,68.4057 80.786266,68.199519 80.136994,68.089189 78.342038,67.784171 75.24982,67.222362 73.126292,66.815441 72.649279,66.724032 71.15318,66.44097 69.801632,66.186404 66.88004,65.636127 63.916694,65.051509 62.188639,64.684492 61.499615,64.538152 60.556423,64.345975 60.092657,64.257431 59.314349,64.108835 58.425408,63.925107 54.985206,63.201814 54.282931,63.054163 52.873564,62.758411 51.853279,62.544587 50.832993,62.330764 49.336895,62.006183 48.528617,61.823296 47.720339,61.64041 46.408543,61.348205 45.613515,61.173951 43.763094,60.768378 41.770737,60.26418 41.277,60.076526 40.960489,59.95623 40.83256,59.873304 40.56188,59.612974 c -0.181309,-0.174375 -0.433568,-0.468825 -0.560575,-0.654331 -0.127007,-0.185507 -0.286955,-0.385331 -0.35544,-0.444055 -0.150663,-0.12919 -0.381129,-0.573474 -0.4833,-0.931694 -0.08491,-0.297692 -0.155591,-0.972635 -0.201575,-1.924821 -0.06842,-1.416818 0.15748,-1.999329 1.775161,-4.577432 0.728609,-1.161186 2.840213,-4.468837 4.022311,-6.300612 1.123933,-1.741644 1.395058,-2.284903 1.571812,-3.149472 0.120167,-0.587781 0.398733,-2.25788 0.581648,-3.487184 0.21706,-1.458774 0.390008,-2.332612 0.529713,-2.676429 0.131045,-0.322503 0.671707,-1.066787 1.120612,-1.542648 0.51134,-0.542048 2.274037,-2.135096 3.483766,-3.148475 0.796826,-0.667495 2.860806,-2.187497 3.372844,-2.483905 0.299729,-0.173507 1.236131,-0.685048 1.951432,-1.066034 0.422246,-0.224898 1.09617,-0.464501 1.558157,-0.553978 0.441949,-0.0856 1.554227,-0.09284 1.63641,-0.01066 0.0705,0.0705 0.07501,0.253684 0.0093,0.37651 -0.04692,0.08767 -0.04015,0.08821 0.202006,0.0163 0.175435,-0.0521 0.338919,-0.06494 0.545291,-0.04284 l 0.294738,0.03156 0.186732,-0.496732 c 0.226289,-0.601959 0.911503,-2.178784 1.522335,-3.503226 l 0.0977,-0.21185 0.515164,0.02879 c 0.51415,0.02873 1.672631,0.167878 3.306201,0.397114 1.256958,0.176387 6.710614,0.821846 9.568028,1.13241 0.728781,0.07921 1.932161,0.218698 2.674189,0.309976 0.742023,0.09128 2.108026,0.254028 3.035556,0.361663 0.927535,0.107636 2.586253,0.303041 3.686043,0.434233 1.099783,0.131192 3.051216,0.35971 4.336513,0.507817 2.417424,0.278565 6.277512,0.805267 6.525735,0.890424 0.207973,0.07135 0.316324,0.189041 0.316324,0.343592 0,0.07523 -0.127849,0.445899 -0.284101,0.823697 -0.329435,0.796526 -0.82412,2.112543 -0.82412,2.192416 0,0.03012 0.0199,0.06708 0.04425,0.08213 0.02435,0.01505 0.597985,0.09171 1.274753,0.170359 0.676763,0.07865 1.572927,0.195981 1.991479,0.260741 0.418548,0.06476 1.064548,0.152983 1.435568,0.196051 0.82924,0.09626 2.46743,0.373552 3.1253,0.529012 1.0175,0.240445 1.29477,0.411234 1.56397,0.963345 0.35476,0.727596 0.49706,1.352389 0.82372,3.616744 0.41901,2.904376 0.83217,7.14145 0.84104,8.624846 0.006,1.06814 0.001,1.098041 -0.3291,1.873046 -0.17122,0.401823 -0.22518,0.607006 -0.30575,1.162514 -0.0538,0.371013 -0.14716,0.824281 -0.20742,1.007263 -0.17769,0.539525 -0.92713,1.665785 -2.16726,3.256977 -2.98672,3.832191 -5.787145,6.890877 -9.777798,10.679527 -2.452478,2.328341 -3.940372,3.602862 -5.877584,5.034708 -0.982692,0.72634 -1.635994,1.034617 -2.433267,1.148207 -0.415248,0.05916 -1.496656,0.05475 -1.855065,-0.0076 z m 2.023707,-0.856619 c 0.69952,-0.142405 1.042951,-0.326214 2.105047,-1.126637 2.21724,-1.670976 3.481115,-2.780788 6.56295,-5.762935 4.142903,-4.008892 8.30223,-8.760153 10.15467,-11.59983 0.50481,-0.773843 0.61679,-0.978569 0.66675,-1.218993 0.045,-0.216359 0.0499,-0.221675 -0.60315,0.650478 -0.6672,0.891065 -1.62315,2.061606 -2.36098,2.891009 -0.30648,0.344512 -0.80551,0.909214 -1.10896,1.254894 -2.832882,3.227146 -7.347305,7.784536 -9.995685,10.090809 -1.847177,1.608569 -4.57804,3.744652 -5.059736,3.957726 -0.308475,0.136457 -0.880058,0.23575 -1.357093,0.23575 -0.490211,0 -1.470479,-0.115074 -2.046031,-0.240186 -0.228917,-0.04975 -0.846872,-0.169269 -1.373231,-0.265571 -0.526354,-0.09631 -1.401503,-0.260206 -1.944777,-0.36422 -0.543268,-0.104008 -2.516381,-0.459966 -4.384694,-0.791012 -1.868318,-0.331045 -3.895638,-0.698744 -4.505159,-0.817111 -0.609521,-0.118367 -1.650285,-0.315171 -2.312808,-0.437341 -1.979013,-0.364934 -12.18568,-2.412297 -15.611455,-3.131514 -0.58302,-0.1224 -1.797244,-0.37323 -2.698275,-0.557398 -1.809492,-0.369855 -2.124301,-0.437548 -3.493304,-0.751166 -0.516769,-0.118384 -1.741834,-0.387613 -2.722368,-0.598288 -0.980534,-0.210674 -2.108028,-0.455399 -2.505542,-0.543833 -1.086206,-0.241646 -1.084129,-0.241361 -1.084129,-0.148722 0,0.04357 0.06286,0.137935 0.139682,0.209701 0.38962,0.36396 1.458841,0.737675 3.121635,1.091077 0.578109,0.122869 1.972616,0.428295 3.098905,0.678725 1.12629,0.25043 2.55734,0.563846 3.180111,0.696481 0.622772,0.132633 1.967091,0.425994 2.987377,0.651911 1.020286,0.225918 3.15602,0.670358 4.746075,0.987644 1.590056,0.317286 3.162043,0.639257 3.493304,0.71549 0.331262,0.07623 1.57801,0.325437 2.770551,0.553786 1.192542,0.22835 2.872941,0.554372 3.734221,0.724494 6.171587,1.21903 12.961057,2.456068 16.888319,3.077047 0.279549,0.0442 1.017191,-0.01039 1.51778,-0.112265 z m -0.09265,-1.442967 c 0.261063,-0.09807 1.10079,-0.703296 2.477726,-1.785831 2.374817,-1.867047 4.859398,-4.17218 8.61467,-7.992465 2.900521,-2.950739 6.449351,-7.022774 7.876551,-9.037786 1.14201,-1.61238 1.25379,-1.816576 1.32774,-2.425652 0.11195,-0.922011 -0.15226,-4.325449 -0.59372,-7.648155 -0.0775,-0.58302 -0.18633,-1.472005 -0.24193,-1.975523 -0.20568,-1.862637 -0.50245,-2.911075 -0.90519,-3.19785 -0.23437,-0.16689 -0.35441,-0.169987 -0.69004,-0.0178 -0.74606,0.338278 -1.64895,1.022963 -3.41447,2.589265 -1.828643,1.622297 -5.178809,4.883525 -6.049082,5.888487 -0.488199,0.563764 -0.843261,1.116142 -0.875633,1.362268 -0.01226,0.09323 0.01176,0.570634 0.05338,1.060902 0.135957,1.601366 0.237487,3.755852 0.241835,5.131542 0.0059,1.86887 -0.05722,2.182428 -0.694182,3.448038 -0.189779,0.377079 -0.491426,0.948071 -0.670337,1.268872 -0.178905,0.320801 -0.440804,0.8001 -0.581989,1.065109 -1.224158,2.297783 -2.223215,4.00635 -3.842426,6.571251 -0.936639,1.483671 -1.756741,2.472544 -2.10469,2.537821 -0.279192,0.05237 -0.398702,-0.120881 -0.26142,-0.378981 0.03078,-0.05788 0.266983,-0.365436 0.52488,-0.683447 0.649443,-0.800854 2.443805,-3.590569 3.505065,-5.449381 0.5236,-0.917091 2.348465,-4.308672 2.810416,-5.223263 0.683304,-1.352834 0.762537,-1.846286 0.675344,-4.206022 -0.07248,-1.961894 -0.125694,-2.821179 -0.248937,-4.020211 -0.132917,-1.293184 -0.129509,-1.377593 0.07177,-1.777414 0.276752,-0.549736 0.996676,-1.424163 2.000681,-2.430029 1.142028,-1.144153 2.756127,-2.686175 4.131793,-3.947298 1.141472,-1.046423 1.108212,-0.982533 0.578732,-1.111628 -0.345758,-0.0843 -0.373007,0.002 0.48606,-1.539879 0.19933,-0.357762 0.38562,-0.666407 0.41399,-0.685877 0.0827,-0.05677 0.47814,-0.03925 0.56167,0.02488 0.11561,0.08876 0.18856,0.251839 0.18856,0.421513 0,0.08378 0.0396,0.20988 0.0879,0.280223 0.0484,0.07034 0.11606,0.198365 0.1504,0.284493 0.0344,0.08613 0.0774,0.156596 0.0958,0.156596 0.0183,0 0.0955,-0.06496 0.17162,-0.144348 0.0761,-0.07939 0.38367,-0.311251 0.68358,-0.515242 0.29991,-0.203992 0.54529,-0.383951 0.54529,-0.39991 0,-0.04589 -1.45383,-0.273019 -2.77055,-0.432842 -0.66252,-0.08042 -1.865909,-0.231298 -2.674187,-0.335294 -0.808278,-0.103995 -1.592936,-0.20289 -1.743691,-0.219765 l -0.274091,-0.03069 -0.09933,0.333531 c -0.126057,0.423284 -0.12554,0.430545 0.03315,0.463231 0.284332,0.05856 1.511212,0.232639 2.540909,0.360531 0.616218,0.07654 1.112267,0.160768 1.154836,0.196095 0.101073,0.08389 0.09516,0.354928 -0.0097,0.44451 -0.04639,0.03962 -0.301147,0.186317 -0.566157,0.325995 -1.191809,0.62817 -1.936218,1.236188 -5.220567,4.264089 -0.69249,0.638415 -0.784839,0.677329 -1.514505,0.638164 -0.297349,-0.01596 -1.386259,-0.148329 -2.419793,-0.294153 -1.03354,-0.145824 -2.139348,-0.299328 -2.45736,-0.341119 -0.318012,-0.04179 -1.64065,-0.215528 -2.939194,-0.386083 -1.298544,-0.170554 -2.924736,-0.387411 -3.613762,-0.481905 -0.689027,-0.09449 -1.903247,-0.258204 -2.698277,-0.3638 -1.531479,-0.203411 -4.253662,-0.577934 -5.059269,-0.696062 -0.26501,-0.03886 -1.240723,-0.169724 -2.168256,-0.29081 -0.927532,-0.121087 -2.293534,-0.304772 -3.03556,-0.408189 -3.388627,-0.47228 -5.662354,-0.78502 -6.504773,-0.894701 -0.912249,-0.118772 -2.811627,-0.384696 -4.505157,-0.630749 -0.490267,-0.07123 -0.921075,-0.152116 -0.95735,-0.179745 -0.104216,-0.07937 -0.03723,-0.531625 0.13988,-0.944415 0.08528,-0.198757 0.36751,-0.712092 0.627182,-1.140745 0.576381,-0.951458 0.6048,-1.002966 0.526778,-0.954746 -0.03222,0.01992 -0.310842,0.264688 -0.619147,0.543936 -0.756976,0.685633 -2.106381,1.806791 -2.608353,2.167161 -0.613777,0.440634 -0.658329,0.487684 -0.740232,0.781715 -0.08246,0.296026 -0.123745,2.033248 -0.0489,2.057277 0.05178,0.01662 4.362251,0.636677 5.824301,0.837817 0.583021,0.08021 1.699673,0.243127 2.481451,0.36204 1.686795,0.256572 3.652008,0.541561 6.287946,0.911858 1.903906,0.26746 7.016193,1.009141 7.950281,1.153411 0.26501,0.04093 1.425024,0.214787 2.577815,0.386347 1.152792,0.17156 2.345332,0.355884 2.650096,0.409608 0.796564,0.14042 1.54465,0.256177 3.75376,0.580842 2.579228,0.379062 4.110581,0.61273 4.442962,0.677949 l 0.270546,0.05308 0.596759,-0.597212 c 0.32822,-0.328467 0.856954,-0.814898 1.174966,-1.080959 1.063278,-0.889582 1.658262,-1.211087 1.663869,-0.899087 0.0011,0.05 -0.554559,0.629797 -1.330559,1.388868 l -1.332114,1.303036 1.177011,0.200467 c 0.647354,0.110256 1.235263,0.222617 1.306476,0.249689 0.106356,0.04044 0.12946,0.07923 0.12946,0.217363 0,0.319546 -0.19599,0.334684 -1.571052,0.121347 -0.519521,-0.0806 -1.055566,-0.151071 -1.191215,-0.156597 l -0.246628,-0.01005 -0.131285,1.060037 c -0.156312,1.262102 -0.230709,1.963245 -0.54489,5.134875 -0.08163,0.824027 -0.153333,1.141198 -0.27541,1.2182 -0.120412,0.07595 0.380442,0.154111 -9.217707,-1.438439 -4.762381,-0.790187 -6.193359,-1.02302 -11.130388,-1.811015 -1.669558,-0.266476 -4.412404,-0.711719 -6.095213,-0.98943 -1.682809,-0.27771 -4.035368,-0.665311 -5.22791,-0.861336 -2.054968,-0.337787 -3.99029,-0.677144 -4.536694,-0.795507 -0.388815,-0.08422 -0.379207,-0.02119 -0.370803,-2.432871 0.004,-1.13954 0.0319,-2.655533 0.06206,-3.368872 0.04046,-0.95687 0.04069,-1.305726 8.79e-4,-1.330325 -0.02967,-0.01834 -0.393677,-0.0817 -0.8089,-0.140804 -1.160872,-0.165242 -2.577751,-0.387645 -2.734271,-0.429191 -0.170557,-0.04527 -0.215468,-0.238497 -0.08562,-0.368349 0.07237,-0.07237 0.139993,-0.07996 0.472405,-0.05302 0.389176,0.03154 1.458613,0.156451 2.576548,0.300935 0.790034,0.102105 0.742942,0.170734 0.798275,-1.163331 0.0321,-0.773782 0.08254,-0.923793 0.44692,-1.329073 0.202537,-0.225271 1.101259,-1.028238 1.963914,-1.75467 2.797024,-2.355342 3.087369,-2.581949 4.255341,-3.32117 0.455496,-0.288288 0.822458,-0.528886 0.815469,-0.534662 -0.007,-0.0058 -0.240372,0.0071 -0.518631,0.02861 -0.613963,0.04746 -1.407731,0.299518 -2.086137,0.66244 -0.877989,0.46969 -1.851133,1.035247 -2.394929,1.391846 -2.140488,1.403645 -5.252872,4.157702 -6.359818,5.627615 -0.259441,0.344512 -0.517536,0.667773 -0.573545,0.718358 -0.05601,0.05058 -0.122541,0.16984 -0.147849,0.265009 -0.07456,0.280398 -0.463072,2.436536 -0.74532,4.136375 -0.30251,1.821868 -0.408695,2.335957 -0.582311,2.81923 -0.162769,0.453081 -0.283792,0.663843 -1.052148,1.832305 -0.352134,0.535503 -0.92059,1.413217 -1.263234,1.950476 -0.342644,0.537259 -1.109145,1.729801 -1.703336,2.650092 -1.929703,2.988755 -2.760751,4.424776 -2.92026,5.046104 -0.204714,0.797411 -0.08956,2.595621 0.20477,3.197562 0.111538,0.22811 0.222213,0.263698 1.868496,0.600816 2.032381,0.416182 4.192331,0.872456 6.19158,1.307929 4.708542,1.025605 10.384312,2.185967 14.382775,2.940433 0.927533,0.175016 2.499519,0.478878 3.493304,0.67525 5.064301,1.000705 8.533029,1.660005 11.274935,2.143028 2.501435,0.440655 4.280674,0.768117 5.227911,0.962183 0.659211,0.135055 1.68534,0.295732 2.45736,0.384784 0.576118,0.06646 1.203913,0.02935 1.521502,-0.08995 z m -1.979248,-2.590838 c -0.06625,-0.01106 -0.586634,-0.09612 -1.156402,-0.189023 -0.569769,-0.09291 -1.675583,-0.285109 -2.45736,-0.427121 -0.781777,-0.142012 -1.887586,-0.337082 -2.457355,-0.433489 -1.521161,-0.257385 -2.762646,-0.48174 -4.119689,-0.744488 -0.662526,-0.128277 -1.735813,-0.333639 -2.385085,-0.456361 -0.649273,-0.122721 -2.665752,-0.505558 -4.481066,-0.850749 -1.815313,-0.34519 -3.864317,-0.733653 -4.553341,-0.863251 -5.465248,-1.02795 -7.202685,-1.366838 -12.455435,-2.429439 -7.028498,-1.421824 -10.286925,-2.129952 -10.364527,-2.25244 -0.0229,-0.03614 -0.04196,-0.147023 -0.04237,-0.246401 -7.15e-4,-0.179058 9.89e-4,-0.180689 0.193644,-0.180689 0.199313,0 1.252223,0.213512 3.082096,0.624997 1.965443,0.44197 3.071065,0.671438 6.384314,1.325042 1.828564,0.36072 4.23533,0.838777 5.348368,1.06235 1.11304,0.223573 2.858487,0.559249 3.878773,0.745946 1.775073,0.324812 4.274315,0.799977 6.33613,1.204648 1.457513,0.286065 5.340767,1.018784 7.131158,1.345556 0.87453,0.159614 2.273059,0.418666 3.107838,0.575671 0.834779,0.157004 2.048999,0.37677 2.698276,0.488369 2.87677,0.494466 6.91329,1.227157 7.05033,1.279745 0.118059,0.0453 0.146215,0.204098 0.05962,0.336257 -0.06936,0.105857 -0.108483,0.11742 -0.377418,0.111539 -0.165019,-0.0036 -0.354242,-0.01561 -0.420498,-0.02667 z M 73.680406,60.688251 c -0.145759,-0.03664 -0.51436,-0.10851 -0.819124,-0.159713 -0.304759,-0.0512 -1.399728,-0.245404 -2.433264,-0.431556 -1.033536,-0.186153 -2.236919,-0.394089 -2.674184,-0.462081 -0.437266,-0.06799 -1.347934,-0.230457 -2.023707,-0.361036 -0.675774,-0.130579 -1.553918,-0.293918 -1.951432,-0.362975 -0.397514,-0.06906 -1.427437,-0.264044 -2.288717,-0.433305 -1.552216,-0.305045 -4.027423,-0.772964 -6.022937,-1.138588 -2.705772,-0.49576 -3.076048,-0.573634 -3.55456,-0.747567 -0.250414,-0.09102 -0.348304,-0.256991 -0.348304,-0.59054 0,-0.203954 0.05449,-0.346709 0.361377,-0.946693 0.198757,-0.388587 0.361376,-0.715239 0.361376,-0.725892 0,-0.06857 -0.140305,0.0089 -0.325665,0.179717 l -0.215982,0.199085 -0.415792,-0.02664 c -0.228685,-0.01466 -0.816918,-0.105458 -1.307185,-0.201787 -1.615286,-0.317373 -2.81703,-0.567199 -2.927126,-0.608506 -0.05962,-0.02237 -0.153253,-0.111678 -0.208085,-0.198466 -0.08461,-0.133915 -0.09609,-0.210924 -0.07588,-0.508818 0.0274,-0.403947 0.07692,-0.50395 0.67326,-1.359494 0.296725,-0.425701 0.406797,-0.629867 0.474982,-0.881019 0.09711,-0.357696 0.488364,-1.029461 1.012156,-1.737828 0.171936,-0.232523 0.40648,-0.600288 0.521209,-0.817255 0.289377,-0.547247 0.54845,-0.923059 0.86984,-1.261788 0.150867,-0.159006 0.463553,-0.560134 0.694858,-0.891395 0.231305,-0.331262 0.487548,-0.672762 0.569428,-0.75889 0.144186,-0.151667 0.161225,-0.156597 0.541272,-0.156597 0.754713,0 1.569642,0.290304 1.77321,0.631673 l 0.114368,0.191786 0.07893,-0.120466 c 0.178121,-0.271847 0.268965,-0.317542 0.630694,-0.317246 1.048377,8.8e-4 1.804054,0.353765 1.882864,0.879307 l 0.03434,0.228972 0.190042,-0.265391 c 0.226499,-0.316302 0.387436,-0.409515 0.707046,-0.409515 0.293295,0 1.238191,0.179946 1.411034,0.268717 0.218435,0.112187 0.373734,0.34177 0.408508,0.603911 l 0.03212,0.242148 0.180793,-0.285935 c 0.299483,-0.473653 0.416071,-0.509695 1.201565,-0.371461 0.951732,0.16749 1.350816,0.423171 1.350816,0.865427 0,0.118219 0.02253,0.104196 0.302048,-0.187969 0.252229,-0.263647 0.328191,-0.315719 0.460559,-0.315719 0.440809,0 1.69361,0.27771 1.836611,0.407124 0.04953,0.04482 0.100888,0.182089 0.118881,0.317731 0.01743,0.131349 0.05262,0.238815 0.0782,0.238815 0.02559,0 0.04653,-0.03469 0.04653,-0.07709 0,-0.0424 0.07372,-0.150813 0.163824,-0.240917 0.12978,-0.129779 0.202374,-0.163758 0.349331,-0.163508 0.293389,5.01e-4 1.445705,0.184163 1.624716,0.258958 0.194621,0.08132 0.319488,0.245465 0.319488,0.419993 0,0.07029 0.01384,0.19702 0.03076,0.281615 l 0.03076,0.153808 0.182774,-0.28907 c 0.264242,-0.417915 0.348274,-0.460766 0.829926,-0.423215 0.433717,0.03381 1.240898,0.232747 1.431169,0.352717 0.196145,0.123671 0.287039,0.269238 0.288179,0.461512 0.0014,0.23191 0.07045,0.229742 0.190714,-0.006 0.152571,-0.299063 0.35432,-0.439713 0.630728,-0.439713 0.32255,0 1.228597,0.179267 1.492437,0.295288 0.277587,0.122067 0.468624,0.305803 0.508977,0.489537 l 0.03183,0.144896 0.09631,-0.168522 c 0.189707,-0.331945 0.380194,-0.376318 1.105215,-0.257453 0.574936,0.09426 0.801505,0.159024 1.040625,0.29746 0.260612,0.150878 0.334849,0.267374 0.377495,0.592375 l 0.0343,0.261268 0.185567,-0.368798 c 0.220523,-0.438286 0.236701,-0.44528 0.926019,-0.400413 1.164631,0.07581 1.531627,0.328828 1.604199,1.106001 l 0.03056,0.327512 0.216867,-0.40991 c 0.285987,-0.540571 0.308761,-0.549774 1.112048,-0.44939 1.035056,0.129345 1.407829,0.335942 1.473101,0.816415 l 0.03441,0.253368 0.11348,-0.221323 c 0.156994,-0.30619 0.416639,-0.525522 0.622122,-0.525522 0.273135,0 1.254085,0.183565 1.601781,0.299743 0.315164,0.105305 0.334112,0.120567 0.461175,0.37142 0.0923,0.182237 0.132505,0.335117 0.132505,0.503913 v 0.242309 l 0.239746,-0.389573 c 0.13693,-0.22251 0.281298,-0.400441 0.336647,-0.414914 0.09046,-0.02365 2.039677,0.253027 3.013277,0.427722 0.958423,0.171973 1.108221,0.288062 1.108221,0.858845 0,0.320721 -0.01902,0.388304 -0.226245,0.803367 -0.124435,0.249253 -0.338142,0.633996 -0.474896,0.854984 -0.196952,0.318244 -0.267638,0.396835 -0.339918,0.377933 -0.0816,-0.02134 -0.09127,0.0049 -0.09135,0.248681 0,0.312472 0.09706,0.13701 -1.445407,2.60977 -0.625756,1.003173 -0.986045,1.53505 -1.078702,1.592453 -0.09343,0.05788 -0.16845,0.169457 -0.228395,0.339678 -0.127266,0.361383 -0.617758,1.22601 -0.790677,1.393792 -0.257682,0.250023 -0.361334,0.242369 -2.600117,-0.192007 -3.05242,-0.592243 -3.76173,-0.725068 -3.872011,-0.725068 -0.13261,0 -0.254511,-0.23866 -0.291374,-0.570447 l -0.02858,-0.257254 -0.143818,0.275601 c -0.216488,0.414868 -0.270892,0.43694 -0.781997,0.317259 -0.524694,-0.122862 -1.278326,-0.245201 -1.326766,-0.215375 -0.01984,0.01224 -0.03611,0.10172 -0.03611,0.198847 0,0.193217 -0.672469,1.672819 -0.809542,1.781195 -0.096,0.0759 -0.389776,0.06907 -0.732326,-0.01704 z m 0.589338,-1.368526 c 0.284453,-0.527987 0.314071,-0.60642 0.240917,-0.637949 -0.08805,-0.03795 -1.11605,-0.24006 -3.006934,-0.591191 -0.627403,-0.116506 -1.722373,-0.321225 -2.433267,-0.454931 -0.710894,-0.133707 -1.357582,-0.254643 -1.437085,-0.268748 -0.0795,-0.01411 -0.838393,-0.154045 -1.686423,-0.310978 -1.904559,-0.35245 -4.749624,-0.84997 -6.191579,-1.082729 -1.043467,-0.168434 -1.865743,-0.319168 -5.155635,-0.945096 -0.83478,-0.158822 -1.549282,-0.293458 -1.587783,-0.299188 -0.03877,-0.0058 -0.122617,0.08388 -0.187922,0.200929 -0.179822,0.322298 -0.440655,0.96351 -0.401725,0.98757 0.019,0.01175 0.457076,0.100155 0.973488,0.196463 1.538834,0.286986 4.409279,0.844484 5.107172,0.991916 1.872016,0.39547 11.160983,2.102524 13.491014,2.479275 0.596271,0.09641 1.246747,0.215134 1.445507,0.263825 0.198755,0.04869 0.393898,0.085 0.433647,0.08068 0.03974,-0.0043 0.218225,-0.278749 0.396608,-0.609848 z m 9.49481,-0.300853 c 0.08143,-0.061 0.708953,-1.077467 0.708953,-1.148369 0,-0.02117 -0.02028,-0.05102 -0.04507,-0.06634 -0.09253,-0.05718 -3.380328,-0.709224 -4.749195,-0.941863 -0.787296,-0.133802 -0.823796,-0.135935 -0.939573,-0.0549 -0.141455,0.09901 -0.702,1.156334 -0.642753,1.212386 0.04986,0.04715 1.526262,0.338971 3.509666,0.693693 0.821531,0.146926 1.602105,0.286872 1.73461,0.310989 0.337026,0.06134 0.333937,0.06139 0.423356,-0.0056 z m -8.927746,-0.799043 c 0,-0.06274 -0.05728,-0.104464 -0.103871,-0.07567 -0.04986,0.0308 -0.0069,0.11582 0.05853,0.11582 0.02496,0 0.04535,-0.01807 0.04535,-0.04015 z m 2.156356,-0.585483 c 0.22281,-0.20758 0.555818,-1.089177 0.429106,-1.136003 -0.03073,-0.01135 -0.337702,-0.07335 -0.682215,-0.137793 -0.837082,-0.156572 -0.836802,-0.156705 -1.191793,0.564649 -0.146088,0.296865 -0.25749,0.548818 -0.247557,0.559895 0.02815,0.03137 1.225973,0.233766 1.418219,0.239633 0.110199,0.0034 0.208331,-0.02898 0.27424,-0.09038 z m -5.159002,-0.154334 c -0.01538,-0.03843 -0.0268,-0.02702 -0.02911,0.02911 -0.0021,0.05079 0.0093,0.07925 0.02531,0.06324 0.01601,-0.01601 0.01772,-0.05757 0.0038,-0.09235 z m 2.21734,-0.304335 c 0.132555,-0.09284 0.664285,-1.080348 0.609688,-1.132285 -0.05851,-0.05566 -1.054043,-0.249713 -1.323412,-0.257962 -0.159226,-0.0049 -0.254324,0.01938 -0.324416,0.08275 -0.08854,0.08004 -0.608441,1.087983 -0.575109,1.114963 0.0074,0.006 0.306185,0.05912 0.663951,0.118041 0.357761,0.05893 0.659508,0.116094 0.670551,0.127042 0.04282,0.04248 0.179994,0.01662 0.278747,-0.05255 z m -4.852163,-0.147218 c 0,-0.04131 -0.02169,-0.06172 -0.04818,-0.04534 -0.0265,0.01638 -0.04818,0.05018 -0.04818,0.07512 0,0.02494 0.02169,0.04534 0.04818,0.04534 0.0265,0 0.04818,-0.0338 0.04818,-0.07512 z m 2.080106,-0.348452 c 0.126158,-0.14993 0.55033,-1.05765 0.512099,-1.095882 -0.05801,-0.05801 -0.998891,-0.26794 -1.210914,-0.270184 -0.180051,-0.0019 -0.260253,0.02318 -0.35367,0.110605 -0.142639,0.133493 -0.612275,1.102859 -0.558643,1.153082 0.02032,0.01903 0.307971,0.07106 0.639222,0.115628 0.33125,0.04456 0.611317,0.09007 0.62237,0.101124 0.06335,0.06335 0.251903,0.0016 0.349536,-0.114373 z m 13.758559,0.02605 c 0.12492,-0.13617 0.669595,-0.980406 1.049652,-1.626954 0.371662,-0.632268 0.889083,-1.559586 0.876803,-1.571413 -0.01869,-0.01799 -1.411969,-0.222177 -1.674137,-0.245347 -0.391672,-0.03461 -0.495098,0.07191 -0.93881,0.966955 -0.35388,0.713828 -0.523039,0.946769 -0.687762,0.947095 -0.04491,9.7e-5 -0.595951,-0.101259 -1.224554,-0.225216 -0.913733,-0.180183 -1.166061,-0.214833 -1.258328,-0.172793 -0.08148,0.03713 -0.168445,0.177704 -0.295799,0.478179 -0.09922,0.234078 -0.211046,0.496554 -0.248508,0.583281 -0.0542,0.125435 -0.05558,0.161379 -0.0068,0.175747 0.16326,0.04808 4.092468,0.790109 4.208757,0.794824 0.05501,0.0023 0.144774,-0.04473 0.199475,-0.104358 z m -18.68223,-0.144548 c -3.85e-4,-0.03313 -0.01907,-0.08915 -0.04148,-0.124499 -0.03247,-0.05122 -0.04703,-0.0479 -0.07169,0.01639 -0.01702,0.04437 -0.01876,0.100389 -0.0038,0.124498 0.03977,0.06435 0.117889,0.05341 0.117034,-0.01639 z M 78.290751,56.41997 c -0.01539,-0.03843 -0.02677,-0.02702 -0.02913,0.02911 -0.0022,0.05079 0.0093,0.07925 0.02529,0.06324 0.016,-0.01601 0.0177,-0.05757 0.0038,-0.09235 z m -9.743417,-0.298332 c 0.06289,-0.08271 0.203006,-0.333963 0.311365,-0.558348 l 0.197017,-0.407969 -0.114736,-0.06012 c -0.0631,-0.03306 -0.357658,-0.103858 -0.654561,-0.15732 -0.775235,-0.139593 -0.835662,-0.107688 -1.222834,0.645657 -0.12194,0.23727 -0.216152,0.436959 -0.209357,0.443754 0.01517,0.01517 1.118065,0.245057 1.285074,0.26786 0.193063,0.02636 0.28614,-0.01322 0.408032,-0.173517 z m 6.779372,-0.137494 c -0.04288,-0.04288 -0.05547,-0.01673 -0.05299,0.109985 0.0033,0.156114 0.0065,0.159538 0.05625,0.05625 0.03919,-0.08132 0.03831,-0.124644 -0.0033,-0.166233 z m -11.683739,0.0022 c -0.01538,-0.03843 -0.0268,-0.02702 -0.02911,0.02911 -0.0021,0.05079 0.0093,0.07925 0.02531,0.06324 0.01601,-0.01601 0.01772,-0.05757 0.0038,-0.09235 z m 2.015898,-0.289472 c 0.131428,-0.10338 0.553096,-0.914127 0.553096,-1.063444 0,-0.07593 -0.165645,-0.126422 -0.743647,-0.226689 -0.46231,-0.0802 -0.642758,-0.06489 -0.773235,0.06558 -0.173198,0.173198 -0.619586,1.086625 -0.543967,1.113098 0.03368,0.01179 0.343108,0.06257 0.68762,0.112846 0.344512,0.05027 0.639723,0.09433 0.656025,0.09789 0.0163,0.0036 0.09015,-0.04111 0.164108,-0.09929 z m 6.864396,-0.219464 c 4.07e-4,-0.03312 -0.02094,-0.06023 -0.04745,-0.06023 -0.0265,0 -0.04785,0.05963 -0.04744,0.132504 5.49e-4,0.103254 0.01105,0.11655 0.04744,0.06023 0.02569,-0.03975 0.04704,-0.09938 0.04745,-0.132505 z m 6.98325,0.09637 c 0.125513,-0.102803 0.496565,-0.983138 0.438957,-1.041454 -0.02265,-0.02291 -0.327412,-0.08336 -0.677301,-0.134341 -0.787269,-0.114712 -0.776951,-0.11973 -1.107315,0.53859 -0.132648,0.264334 -0.235557,0.48196 -0.228691,0.483612 0.125611,0.03021 1.294107,0.228906 1.368328,0.232677 0.05669,0.0029 0.149403,-0.03271 0.206022,-0.07908 z M 62.928977,55.284651 c 0.163527,-0.155256 0.648672,-1.056643 0.588666,-1.093728 -0.114549,-0.0708 -0.883905,-0.21864 -1.139301,-0.218934 -0.362811,-4.34e-4 -0.433819,0.06627 -0.780589,0.733095 l -0.243594,0.468426 0.152231,0.02774 c 0.444976,0.08108 1.171738,0.206257 1.223554,0.210751 0.03271,0.0029 0.122273,-0.05447 0.199033,-0.127346 z m 13.868851,-0.216825 c 0.0977,-0.107354 0.448154,-0.844304 0.448154,-0.942396 0,-0.06233 -0.03568,-0.07374 -0.696997,-0.222755 -0.438649,-0.09885 -0.549095,-0.109143 -0.650482,-0.06065 -0.169219,0.08094 -0.682671,1.075008 -0.586771,1.13602 0.03595,0.02287 0.295876,0.06752 0.577613,0.09923 0.281743,0.0317 0.52155,0.06694 0.532918,0.0783 0.06045,0.06045 0.289372,0.007 0.375565,-0.08775 z m -7.068471,0.01204 c 0,-0.0265 -0.02296,-0.04818 -0.05103,-0.04818 -0.02806,0 -0.03763,0.02168 -0.02125,0.04818 0.01638,0.0265 0.03934,0.04818 0.05103,0.04818 0.01169,0 0.02125,-0.02168 0.02125,-0.04818 z m -9.49413,-0.373421 c 0.198372,-0.270225 0.568368,-0.952854 0.535703,-0.988353 -0.04176,-0.04538 -0.641736,-0.160521 -1.066589,-0.204684 -0.29588,-0.03076 -0.325795,-0.02465 -0.468917,0.09578 -0.150392,0.126547 -0.588272,0.844276 -0.588272,0.964238 0,0.04107 0.195234,0.09355 0.590248,0.158654 0.821757,0.135439 0.880692,0.133925 0.997827,-0.02564 z m 6.746933,-0.07228 c 4.06e-4,-0.01988 -0.02094,-0.03614 -0.04744,-0.03614 -0.0265,0 -0.04785,0.04879 -0.04744,0.108413 6.05e-4,0.08767 0.0097,0.09458 0.04744,0.03614 0.02569,-0.03975 0.04704,-0.08854 0.04744,-0.108413 z m 7.025515,0.01104 c 0.09538,-0.08887 0.55513,-0.963625 0.52322,-0.995535 -0.03111,-0.0311 -1.169854,-0.256226 -1.296076,-0.256226 -0.07805,0 -0.183319,0.04665 -0.244649,0.108413 -0.105531,0.106276 -0.586732,0.993051 -0.554722,1.022259 0.009,0.0082 0.30899,0.05173 0.666756,0.09681 0.357761,0.04508 0.659508,0.09089 0.670551,0.101807 0.04502,0.04451 0.136232,0.01441 0.23492,-0.07753 z m 6.705349,-0.27089 c 0.0027,-0.07162 -0.130933,-0.122884 -0.167262,-0.0641 -0.01539,0.02489 -0.01248,0.126938 0.0065,0.226768 l 0.03447,0.181507 0.06207,-0.14455 c 0.03414,-0.0795 0.06306,-0.169334 0.06426,-0.199625 z M 57.284848,54.248706 c 0.055,-0.05963 0.2191,-0.307917 0.364668,-0.551754 l 0.264669,-0.443342 -0.247856,-0.04948 c -0.45905,-0.09165 -0.872838,-0.14723 -1.098831,-0.147597 -0.190303,-2.89e-4 -0.243038,0.02157 -0.345451,0.143274 -0.188632,0.224177 -0.53014,0.871592 -0.483553,0.9167 0.04623,0.04477 1.064286,0.23034 1.298158,0.236631 0.09564,0.0026 0.183657,-0.03445 0.248196,-0.104427 z m 13.807637,-0.0069 c 0.1138,-0.105467 0.564212,-0.931804 0.564212,-1.035119 0,-0.05924 -0.821538,-0.207776 -1.169112,-0.211378 -0.229267,-0.0024 -0.299479,0.01739 -0.402457,0.113311 -0.154937,0.144318 -0.570026,0.957404 -0.515911,1.010581 0.03349,0.03291 1.082288,0.217836 1.321554,0.233018 0.04251,0.0027 0.133278,-0.04699 0.201714,-0.110413 z m -6.8429,-0.122489 c 0.0141,-0.05391 -0.0038,-0.104093 -0.04256,-0.118946 -0.046,-0.01765 -0.06695,0.01153 -0.06695,0.09326 0,0.141127 0.07474,0.158661 0.109514,0.02569 z m 13.727371,-0.338466 c -0.09001,-0.148015 -0.09271,-0.148917 -0.121061,-0.04052 -0.01594,0.06098 -0.01567,0.194114 5.5e-4,0.295863 l 0.02957,0.184997 0.09148,-0.144477 c 0.08988,-0.141961 0.08987,-0.147114 -5.5e-4,-0.295863 z m 5.094806,0.111385 c 0.163849,-0.114765 0.499375,-0.842033 0.423549,-0.91807 -0.03177,-0.03185 -0.354622,-0.118125 -0.717467,-0.19172 l -0.659722,-0.133807 -0.130202,0.119444 c -0.112529,0.103233 -0.501788,0.844395 -0.501788,0.955421 0,0.02156 0.27645,0.07749 0.614339,0.124286 0.337889,0.0468 0.623376,0.09381 0.634414,0.104475 0.04766,0.04605 0.232418,0.01314 0.336877,-0.06003 z m -21.58517,-0.173544 c 0.0019,-0.01988 -0.01829,-0.03614 -0.0448,-0.03614 -0.0265,0 -0.04666,0.05963 -0.0448,0.132505 0.003,0.117415 0.0081,0.121531 0.0448,0.03614 0.02277,-0.053 0.04293,-0.112629 0.0448,-0.132504 z m -6.950781,0.04143 c 0.194859,-0.164764 0.622169,-0.887738 0.560904,-0.949002 -0.06548,-0.06548 -0.902928,-0.235364 -1.164112,-0.236154 -0.350596,-0.001 -0.476441,0.106716 -0.796296,0.681964 -0.130844,0.235318 -0.162797,0.330992 -0.119485,0.357761 0.05542,0.03425 1.125916,0.244271 1.302164,0.255473 0.04434,0.0028 0.141915,-0.0467 0.216825,-0.110042 z m 13.832382,0.0068 c 0.109044,-0.116886 0.493861,-0.883118 0.493861,-0.983355 0,-0.06663 -0.154223,-0.114341 -0.760785,-0.23536 -0.456267,-0.09103 -0.595948,-0.07077 -0.764287,0.110871 -0.193262,0.208533 -0.566161,0.927087 -0.510174,0.983074 0.0447,0.04469 1.030277,0.215245 1.31614,0.227753 0.07204,0.0031 0.16654,-0.04006 0.225245,-0.102983 z M 75.21487,53.39751 c -0.135215,-0.325358 -0.163618,-0.282444 -0.05561,0.08403 0.05475,0.185767 0.0993,0.26876 0.122253,0.227746 0.01995,-0.03563 -0.0099,-0.175276 -0.06664,-0.311775 z m -11.749368,0.188676 c 0,-0.0265 -0.0096,-0.04818 -0.02125,-0.04818 -0.01169,0 -0.03465,0.02168 -0.05103,0.04818 -0.01638,0.0265 -0.0068,0.04818 0.02125,0.04818 0.02807,0 0.05103,-0.02169 0.05103,-0.04818 z m -11.922259,-0.03687 c 0.07469,-0.0515 0.743687,-1.048408 0.743687,-1.108212 0,-0.02782 -0.200564,-0.08485 -0.445698,-0.126715 -0.245133,-0.04187 -1.079487,-0.184809 -1.85412,-0.317647 -0.774634,-0.132838 -1.455571,-0.241523 -1.513195,-0.241523 -0.05911,0 -0.180276,0.08031 -0.277999,0.184245 -0.201385,0.214192 -0.601558,0.902806 -0.561919,0.966943 0.04091,0.0662 0.398688,0.141847 1.978746,0.418405 1.415749,0.247799 1.8273,0.295659 1.930498,0.224504 z m 7.198744,-0.288363 c 8.24e-4,-0.03312 -0.03099,-0.06023 -0.07074,-0.06023 -0.04914,0 -0.07228,0.04921 -0.07228,0.15376 0,0.145542 0.0038,0.148761 0.07074,0.06023 0.03891,-0.05144 0.07143,-0.120633 0.07228,-0.15376 z m 21.530788,0.117744 c 0.1085,-0.11549 0.44242,-0.839745 0.44242,-0.959579 0,-0.04943 -0.159445,-0.09761 -0.574029,-0.173439 -0.671282,-0.122781 -0.909384,-0.130922 -1.045275,-0.03574 -0.119126,0.08344 -0.526255,0.985706 -0.468916,1.039194 0.02221,0.02073 0.36566,0.08056 0.763175,0.132931 0.397516,0.05238 0.735234,0.09805 0.750489,0.101492 0.01528,0.0035 0.07472,-0.04375 0.132136,-0.104863 z m -7.750306,-0.223321 c -0.0011,-0.04131 -0.03337,-0.1172 -0.07228,-0.168642 -0.06495,-0.08588 -0.07062,-0.07208 -0.06921,0.168642 0.0014,0.241009 0.0072,0.254623 0.07227,0.168643 0.03891,-0.05144 0.07005,-0.127331 0.06921,-0.168643 z m -6.854146,0.0735 c 0.162187,-0.136471 0.577903,-0.977134 0.514237,-1.03989 -0.02358,-0.02324 -0.300219,-0.07771 -0.614752,-0.121034 -0.46027,-0.0634 -0.599438,-0.06736 -0.713094,-0.02028 -0.162673,0.06738 -0.339668,0.308813 -0.58676,0.800382 l -0.173921,0.345996 0.251891,0.02956 c 0.13854,0.01626 0.381986,0.04764 0.540991,0.06973 0.512301,0.07118 0.631921,0.06131 0.781408,-0.06447 z m 18.520962,-0.207034 c -0.03991,-0.06856 -0.04964,-0.04188 -0.04777,0.130688 0.0022,0.200134 0.006,0.206765 0.05013,0.08614 0.03216,-0.088 0.03139,-0.158822 -0.0022,-0.216825 z m -23.566609,0.08251 c 0,-0.0265 -0.0096,-0.04818 -0.02125,-0.04818 -0.01169,0 -0.03465,0.02169 -0.05103,0.04818 -0.01638,0.0265 -0.0068,0.04818 0.02125,0.04818 0.02806,0 0.05103,-0.02168 0.05103,-0.04818 z m 16.686059,-0.182214 c 0.08945,-0.09884 0.419086,-0.80435 0.419086,-0.896957 0,-0.07398 -0.20755,-0.138923 -0.806244,-0.252283 l -0.444861,-0.08423 -0.126206,0.117596 c -0.141278,0.131639 -0.516987,0.843119 -0.489216,0.92643 0.01363,0.04093 0.974892,0.238243 1.316992,0.270343 0.02902,0.0027 0.08772,-0.03368 0.130449,-0.0809 z M 62.826073,52.755017 c 0.159517,-0.166075 0.571141,-0.891423 0.529501,-0.933063 -0.03044,-0.03044 -0.676016,-0.142049 -1.084321,-0.187466 -0.300487,-0.03342 -0.304087,-0.03238 -0.460459,0.133422 -0.135602,0.14378 -0.561733,0.803942 -0.561733,0.870236 0,0.03946 1.02375,0.242164 1.351732,0.26765 0.04118,0.0032 0.142554,-0.06465 0.22528,-0.150779 z m 6.803616,-0.210948 c -0.0842,-0.15732 -0.147177,-0.04931 -0.08135,0.139518 0.04357,0.124995 0.05611,0.132777 0.09678,0.0601 0.03189,-0.05699 0.027,-0.120352 -0.01543,-0.199618 z m 11.854432,-0.0902 c 5.49e-4,-0.0265 -0.06356,-0.08515 -0.142955,-0.130328 l -0.144357,-0.08214 0.07238,0.13998 c 0.0398,0.07699 0.07315,0.189844 0.07409,0.250787 l 0.0016,0.110806 0.06886,-0.120459 c 0.03787,-0.06625 0.06949,-0.142141 0.07026,-0.168642 z m 6.401442,0.08432 c 0.05167,-0.07288 0.17354,-0.282789 0.270804,-0.466471 0.205934,-0.388923 0.210991,-0.38149 -0.310267,-0.456291 -0.917938,-0.131722 -1.599235,-0.248717 -1.975268,-0.339198 -0.559352,-0.134591 -0.70057,-0.129135 -0.861275,0.03328 -0.143345,0.144876 -0.423334,0.868603 -0.359052,0.9281 0.02193,0.02028 0.397592,0.08382 0.834856,0.14121 1.467071,0.192546 1.903131,0.254495 1.923327,0.27324 0.01105,0.01025 0.101716,0.01863 0.201498,0.01863 0.143015,0 0.20131,-0.02805 0.275377,-0.132504 z m -3.89389,-0.02168 c 0,-0.07784 -0.01424,-0.09176 -0.0536,-0.05238 -0.02946,0.02949 -0.03903,0.07719 -0.02122,0.106004 0.04986,0.08064 0.07487,0.06272 0.07487,-0.05362 z m -9.537098,-0.04028 c 0.104624,-0.056 0.302967,-0.422851 0.433086,-0.80106 l 0.0863,-0.250846 -0.244424,-0.05242 c -0.336136,-0.07209 -1.056935,-0.119112 -1.215556,-0.0793 -0.107158,0.0269 -0.168818,0.11345 -0.343469,0.482141 -0.226729,0.47863 -0.247936,0.556722 -0.152635,0.562011 0.07777,0.0043 1.308148,0.17335 1.328217,0.182474 0.0084,0.0038 0.05718,-0.01555 0.108478,-0.043 z M 60.03152,52.337902 c 0.197514,-0.225091 0.590994,-0.939379 0.543596,-0.986793 -0.02349,-0.0235 -0.346127,-0.07577 -0.716969,-0.116155 -0.621156,-0.06765 -0.683811,-0.06717 -0.79553,0.006 -0.113905,0.07463 -0.691686,0.977246 -0.651056,1.017083 0.02429,0.02382 1.181019,0.205527 1.360205,0.213674 0.09566,0.0043 0.173841,-0.03593 0.259754,-0.133839 z m 6.997853,-0.218479 c -9.34e-4,-0.02806 -0.03037,-0.102735 -0.06541,-0.165943 -0.08857,-0.159791 -0.142134,-0.05316 -0.09964,0.198361 0.03122,0.184774 0.03902,0.193291 0.100304,0.109481 0.03655,-0.04998 0.06568,-0.113838 0.06474,-0.141899 z m 11.429262,-0.134504 c -0.04288,-0.04288 -0.05547,-0.01673 -0.05299,0.109985 0.0033,0.156114 0.0065,0.159538 0.05625,0.05625 0.03919,-0.08132 0.03831,-0.124644 -0.0033,-0.166233 z m -6.566338,-0.152798 c 0.195207,-0.416645 0.294419,-0.670593 0.294419,-0.753612 0,-0.104079 -0.255878,-0.167727 -0.875126,-0.217682 -0.626644,-0.05055 -0.626092,-0.05087 -0.905591,0.518857 -0.132313,0.269706 -0.23311,0.497835 -0.223992,0.506953 0.01792,0.01791 1.020654,0.190472 1.257864,0.216462 0.220379,0.02415 0.350736,-0.05393 0.452426,-0.270978 z m -14.666523,0.115784 c 0.188371,-0.208148 0.594216,-0.939526 0.537995,-0.969528 -0.0986,-0.05262 -0.866145,-0.187329 -1.126163,-0.197651 -0.20816,-0.0083 -0.27251,0.01026 -0.378143,0.108841 -0.149101,0.139151 -0.617337,0.912239 -0.576966,0.95261 0.03398,0.03398 1.044659,0.18882 1.282811,0.196528 0.117249,0.0038 0.201411,-0.02555 0.260466,-0.0908 z m 7.106713,-0.346447 c 3.38e-4,-0.08306 -0.08346,-0.164 -0.125862,-0.121597 -0.01287,0.01287 -0.03189,0.127539 -0.04226,0.254819 l -0.01886,0.231418 0.09333,-0.141581 c 0.05133,-0.07787 0.09347,-0.178247 0.09365,-0.223059 z m 11.467989,-0.09066 c 0,-0.01829 -0.07589,-0.09114 -0.168637,-0.161885 -0.09276,-0.07075 -0.168643,-0.119441 -0.168643,-0.108211 0,0.01123 0.04618,0.124749 0.102552,0.252264 0.0952,0.215208 0.107302,0.225359 0.168643,0.141466 0.03633,-0.04971 0.06609,-0.105344 0.06609,-0.123634 z m -6.870625,0.04659 c 0.128477,-0.10106 0.510405,-0.79697 0.510405,-0.930007 0,-0.0808 -0.28327,-0.147279 -0.939578,-0.220486 -0.387723,-0.04325 -0.445976,-0.03925 -0.550016,0.03777 -0.14205,0.105161 -0.604682,0.923791 -0.549555,0.972441 0.02175,0.01919 0.310311,0.07214 0.641261,0.117668 0.330951,0.04553 0.611018,0.09207 0.622371,0.103421 0.04528,0.04528 0.142472,0.01566 0.265112,-0.08081 z m 14.388897,-0.27197 c 0.131592,-0.205382 0.239262,-0.398843 0.239268,-0.429915 1.1e-5,-0.07935 -0.227098,-0.141561 -0.864595,-0.236835 l -0.551409,-0.08241 -0.12316,0.150604 c -0.06774,0.08283 -0.203301,0.300008 -0.301258,0.482613 l -0.178091,0.332009 0.491288,0.07155 c 0.270205,0.03935 0.616702,0.07476 0.769992,0.07868 l 0.278708,0.0071 z m -28.736613,0.120459 c 0.135011,-0.153168 0.613377,-0.90197 0.590609,-0.9245 -0.0104,-0.01028 -0.330498,-0.06473 -0.711345,-0.120997 -0.636322,-0.09401 -0.701883,-0.09612 -0.808845,-0.02603 -0.191135,0.125237 -0.737705,0.908437 -0.676607,0.969535 0.03666,0.03666 1.057058,0.198492 1.290153,0.204616 0.172725,0.0046 0.241168,-0.01768 0.316035,-0.10262 z m 6.833646,-0.246264 c -0.03532,-0.188301 -0.118537,-0.193773 -0.118537,-0.0078 0,0.167594 0.0528,0.280758 0.106126,0.227437 0.02483,-0.02483 0.03041,-0.123669 0.01241,-0.219643 z m 18.816179,-0.02939 c 0.05222,-0.05223 0.162981,-0.229697 0.246106,-0.394368 0.184177,-0.364863 0.164926,-0.389345 -0.368639,-0.468702 -0.447868,-0.06661 -0.674701,-0.06817 -0.791919,-0.0054 -0.08536,0.04568 -0.49882,0.769448 -0.46111,0.807161 0.01759,0.01757 0.965811,0.139278 1.172184,0.150445 0.05963,0.0032 0.151146,-0.03687 0.203378,-0.0891 z M 52.04361,50.794696 c 0.160066,-0.210271 0.335579,-0.457818 0.390029,-0.550103 0.09376,-0.158911 0.09441,-0.169213 0.01228,-0.194649 -0.31375,-0.09718 -2.480139,-0.462991 -2.741872,-0.462991 -0.224029,0 -0.473566,0.208728 -0.787577,0.658778 -0.160216,0.229628 -0.283855,0.424954 -0.274751,0.434058 0.0091,0.0091 0.534864,0.102002 1.168357,0.206442 0.633492,0.10444 1.271059,0.210014 1.416814,0.23461 0.514993,0.0869 0.496742,0.09419 0.816717,-0.326145 z m 20.865859,0.285945 c 0,-0.053 -0.01968,-0.09637 -0.04365,-0.09637 -0.02402,0 -0.03232,0.04337 -0.01847,0.09637 0.01385,0.053 0.03353,0.09637 0.04365,0.09637 0.01017,0 0.01847,-0.04337 0.01847,-0.09637 z m -6.604157,-0.07938 c 0.105624,-0.13428 0.36147,-0.644084 0.410405,-0.817783 0.03617,-0.128393 -0.07586,-0.154965 -0.826413,-0.196014 -0.444388,-0.0243 -0.55982,-0.01618 -0.654846,0.04608 -0.104049,0.06818 -0.492093,0.760851 -0.492093,0.878408 0,0.04874 0.89122,0.197037 1.26132,0.209886 0.164888,0.0057 0.219426,-0.01608 0.301627,-0.12058 z m -7.68383,-0.110297 c 0.105404,-0.20383 0.0017,-0.412971 -0.107771,-0.217351 -0.03806,0.06801 -0.02411,0.358849 0.01721,0.358849 0.0096,0 0.05031,-0.06367 0.09056,-0.141498 z m 18.795583,-0.255655 c 0.157142,-0.186755 0.310756,-0.528901 0.310756,-0.692164 0,-0.153548 -0.123105,-0.198634 -0.731128,-0.267773 -0.400302,-0.04552 -0.490288,-0.04339 -0.543164,0.01284 -0.0715,0.07604 -0.432553,0.906515 -0.405524,0.93278 0.01523,0.01477 0.93715,0.145243 1.157557,0.163814 0.04403,0.0037 0.139195,-0.06356 0.211503,-0.149492 z m -13.843038,0.04782 c 0.11571,-0.08848 0.530546,-0.910029 0.483348,-0.957227 -0.02217,-0.02217 -0.338931,-0.07615 -0.703896,-0.119936 l -0.663573,-0.07962 -0.109863,0.103212 c -0.126672,0.119002 -0.583762,0.913407 -0.546819,0.95035 0.01358,0.01358 0.249247,0.04618 0.523705,0.07244 0.274457,0.02627 0.520696,0.05577 0.547197,0.06557 0.112994,0.04179 0.397275,0.02073 0.469901,-0.0348 z m 6.588982,-0.105568 c 0,-0.01169 -0.02168,-0.03465 -0.04818,-0.05103 -0.0265,-0.01638 -0.04818,-0.0068 -0.04818,0.02125 0,0.02807 0.02169,0.05103 0.04818,0.05103 0.0265,0 0.04818,-0.0096 0.04818,-0.02125 z M 55.83724,50.348854 c -0.01538,-0.03843 -0.0268,-0.02702 -0.02911,0.02911 -0.0021,0.05079 0.0093,0.07925 0.02531,0.06324 0.01601,-0.01601 0.01772,-0.05757 0.0038,-0.09235 z m 4.929888,-0.03909 c 0.112534,-0.06023 0.572814,-0.815357 0.589807,-0.967631 0.01122,-0.100547 -0.01352,-0.117022 -0.228333,-0.152027 -0.406293,-0.06621 -1.145281,-0.066 -1.262456,3.85e-4 -0.09671,0.05477 -0.658528,0.924828 -0.621255,0.962101 0.0088,0.0088 0.316579,0.04916 0.683974,0.08971 0.367394,0.04055 0.677413,0.08315 0.68893,0.09467 0.03007,0.03007 0.04867,0.02668 0.149333,-0.02719 z m 13.913945,-0.06042 c 0.131972,-0.140478 0.360097,-0.638865 0.339956,-0.742712 -0.01842,-0.09486 -0.103162,-0.121957 -0.726807,-0.232315 -0.440864,-0.07801 -0.478046,-0.07815 -0.593884,-0.0023 -0.109968,0.07205 -0.525134,0.837615 -0.479168,0.883581 0.02573,0.02573 1.037437,0.190224 1.209724,0.196692 0.09665,0.0036 0.183671,-0.0322 0.250179,-0.102992 z m -7.260005,-0.243487 c -0.03815,-0.03815 -0.0527,-0.02564 -0.0527,0.04527 0,0.127384 0.06738,0.195 0.08884,0.08915 0.0091,-0.04494 -0.0072,-0.105432 -0.03614,-0.134418 z m -9.18514,-0.437879 c 0.236062,-0.370141 0.372608,-0.657521 0.345714,-0.727605 -0.06718,-0.175079 -1.494583,-0.219511 -1.662348,-0.05174 -0.04083,0.04083 -0.176173,0.253416 -0.30077,0.47242 -0.194161,0.341278 -0.215163,0.402749 -0.146947,0.430091 0.112878,0.04524 1.410486,0.16762 1.518087,0.143171 0.04915,-0.01116 0.159966,-0.131015 0.246264,-0.26633 z m 13.77419,0.151487 c 0.159955,-0.213346 0.321148,-0.542333 0.321148,-0.655448 0,-0.120077 -0.05703,-0.139496 -0.656984,-0.223715 -0.670678,-0.09415 -0.697912,-0.0814 -0.938441,0.439224 -0.105538,0.228437 -0.181175,0.426052 -0.168083,0.439145 0.03884,0.03884 0.803566,0.147469 1.074441,0.152623 0.2289,0.0043 0.26064,-0.0087 0.367919,-0.151829 z m -7.289636,-0.224744 c -0.02958,-0.05527 -0.0752,-0.100494 -0.101382,-0.100494 -0.02618,0 -0.01164,0.05488 0.03232,0.121962 0.09343,0.142597 0.147825,0.12569 0.06907,-0.02147 z m -9.362158,-0.328639 c 0.182787,-0.265818 0.400342,-0.69246 0.374458,-0.73434 -0.03591,-0.0581 -0.423525,-0.131467 -1.05803,-0.200251 l -0.527279,-0.05716 -0.152986,0.176979 c -0.148561,0.171859 -0.480958,0.746978 -0.447376,0.774055 0.0092,0.0074 0.34192,0.0782 0.739434,0.157329 0.801295,0.159516 0.888422,0.150036 1.071779,-0.116613 z m 6.75804,0.158181 c 0,-0.03535 -0.02914,-0.07546 -0.06475,-0.08913 -0.04632,-0.01777 -0.05847,0.008 -0.04267,0.09065 0.02242,0.117304 0.107427,0.116097 0.107427,-0.0015 z m 7.094188,0.03382 c 0.07019,-0.07962 0.374255,-0.655397 0.374255,-0.708686 0,-0.101427 -0.962333,-0.301998 -1.183113,-0.246586 -0.06243,0.01567 -0.166343,0.09879 -0.23092,0.184711 -0.139298,0.185343 -0.345616,0.653167 -0.305673,0.693109 0.03598,0.03598 0.8155,0.149583 1.073806,0.156495 0.132567,0.0036 0.221704,-0.02239 0.271645,-0.07904 z m -2.684863,-0.551487 c 0.184205,-0.218915 0.342653,-0.55841 0.286134,-0.613081 -0.06384,-0.06175 -1.162118,-0.185278 -1.243308,-0.139842 -0.03651,0.02043 -0.115353,0.151536 -0.175197,0.291337 -0.05984,0.139801 -0.149481,0.311737 -0.199192,0.38208 -0.04971,0.07034 -0.09038,0.137304 -0.09038,0.148801 0,0.0115 0.222247,0.04796 0.493881,0.08102 0.271634,0.03306 0.526405,0.0653 0.566156,0.07164 0.108561,0.01732 0.216035,-0.0486 0.361911,-0.221962 z M 52.341477,48.90898 c 0.09239,-0.04944 0.571838,-0.736992 0.571838,-0.820039 0,-0.02208 -0.08131,-0.06201 -0.180688,-0.08874 -0.243852,-0.06558 -1.875628,-0.38877 -1.962911,-0.38877 -0.216155,0 -0.810216,0.863184 -0.659282,0.957949 0.06268,0.03935 0.437299,0.114706 1.453743,0.292417 0.623872,0.109076 0.657803,0.111135 0.7773,0.04718 z m 7.027224,-0.161621 c -0.06481,-0.06481 -0.113011,8.24e-4 -0.07443,0.101369 0.02768,0.07214 0.03925,0.07434 0.07622,0.01453 0.02629,-0.04254 0.02558,-0.08853 -0.0018,-0.115896 z m -2.928353,-0.278261 c -0.04497,-0.04497 -0.05782,-0.03213 -0.05782,0.05782 0,0.08994 0.01285,0.102791 0.05782,0.05782 0.04497,-0.04497 0.04497,-0.07067 0,-0.11564 z m 7.586651,-0.302491 c 0.09789,-0.190153 0.165209,-0.379004 0.149605,-0.419668 -0.02108,-0.05494 -0.16636,-0.08917 -0.565571,-0.133256 -0.295461,-0.03263 -0.58816,-0.04653 -0.650443,-0.0309 -0.07584,0.01904 -0.186206,0.149817 -0.334183,0.396015 -0.121518,0.202176 -0.220942,0.38421 -0.220942,0.40452 0,0.05649 0.101464,0.08419 0.51324,0.14016 0.848651,0.115345 0.868497,0.108954 1.108294,-0.356871 z m -7.820644,-0.111579 c -0.01529,-0.05847 -0.04696,-0.106309 -0.07037,-0.106309 -0.05581,0 -0.05369,0.03372 0.0095,0.151845 0.06475,0.120983 0.0979,0.09617 0.06084,-0.04554 z m 4.799179,-0.02199 c 0.142895,-0.145894 0.484444,-0.624611 0.484444,-0.678998 0,-0.04622 -0.315426,-0.12223 -0.754278,-0.181748 -0.542345,-0.07355 -0.583847,-0.05292 -0.932324,0.463499 l -0.243674,0.361109 0.23034,0.0033 c 0.126687,0.0018 0.371276,0.04216 0.543532,0.08966 0.447728,0.123474 0.499687,0.119081 0.67196,-0.05681 z m -2.820738,-0.306044 c 0.07389,-0.02835 0.462356,-0.682269 0.462356,-0.778296 0,-0.120002 -1.060126,-0.259486 -1.240103,-0.163165 -0.05557,0.02974 -0.203547,0.208261 -0.328825,0.396707 -0.231266,0.347873 -0.234734,0.418831 -0.02113,0.432261 0.03975,0.0025 0.224053,0.03328 0.409559,0.06839 0.382669,0.07244 0.608196,0.08629 0.71814,0.0441 z m -2.778929,-0.513076 c 0.126457,-0.136854 0.446353,-0.668327 0.446518,-0.741838 1.45e-4,-0.05928 -0.72756,-0.210048 -1.013054,-0.209883 -0.09348,4.8e-5 -0.215345,0.03188 -0.270806,0.07073 -0.124919,0.0875 -0.573935,0.737605 -0.535792,0.775747 0.03645,0.03645 0.933697,0.203271 1.124762,0.209122 0.0961,0.003 0.183413,-0.03358 0.248372,-0.103876 z m -2.621375,-0.415642 c 0.133775,-0.115143 0.436168,-0.681952 0.387903,-0.727091 -0.07332,-0.06857 -0.540209,-0.146175 -0.879438,-0.146175 -0.277,0 -0.341604,0.01644 -0.426025,0.108413 -0.119778,0.130493 -0.417587,0.612466 -0.392694,0.635533 0.04201,0.03892 1.130488,0.251787 1.174068,0.229598 0.0265,-0.01349 0.08778,-0.05862 0.136186,-0.100278 z M 45.348506,53.7462 c -0.824849,-0.134184 -1.791745,-0.330327 -1.918903,-0.389264 -0.230606,-0.106887 -0.313637,-0.255618 -0.273924,-0.490675 0.03744,-0.221608 0.207127,-0.49565 0.854601,-1.380173 0.253841,-0.346776 0.531656,-0.769586 0.617367,-0.939578 0.160194,-0.317719 0.727353,-1.179899 1.803966,-2.742343 0.337823,-0.490268 0.836581,-1.227475 1.108353,-1.63824 0.844361,-1.276195 0.873332,-1.300954 1.522256,-1.300954 0.457038,0 1.038758,0.126076 1.393735,0.302063 0.272976,0.135335 0.329164,0.276345 0.253622,0.636494 -0.06753,0.321959 -0.282326,0.668937 -2.017758,3.259481 -1.460583,2.180267 -1.937038,2.923882 -2.522052,3.936225 -0.370684,0.641453 -0.511296,0.804241 -0.667804,0.773122 -0.01815,-0.0036 -0.08721,-0.01538 -0.153459,-0.02616 z m 0.03958,-0.967087 c 0.121163,-0.103789 0.840389,-1.238086 0.79103,-1.24754 -0.01957,-0.0037 -0.298308,-0.04494 -0.61942,-0.09154 -0.519807,-0.07544 -0.595107,-0.07684 -0.68656,-0.01278 -0.108416,0.07594 -0.818953,1.01628 -0.838335,1.109475 -0.0068,0.03249 0.212533,0.10701 0.542772,0.184444 0.685481,0.160733 0.690126,0.161065 0.810513,0.05794 z m 1.466082,-2.312809 c 0.150998,-0.169563 0.566231,-0.801902 0.566231,-0.862287 0,-0.03608 -0.172137,-0.114652 -0.410355,-0.187313 -0.628649,-0.19175 -0.729066,-0.199786 -0.867804,-0.06945 -0.138114,0.129751 -0.600997,0.788515 -0.600997,0.855325 0,0.02517 0.178881,0.111873 0.397514,0.19267 0.462534,0.17093 0.802939,0.197352 0.915411,0.07105 z m 1.211377,-1.903248 c 0.06628,-0.05963 0.305402,-0.378391 0.531391,-0.708364 0.374234,-0.546427 0.404337,-0.607194 0.337426,-0.68113 -0.0662,-0.07314 -0.612361,-0.188515 -0.89243,-0.188515 -0.140777,0 -0.561925,0.418439 -0.984335,0.978005 l -0.366994,0.486155 0.521495,0.08744 c 0.286822,0.04809 0.543176,0.09639 0.569677,0.107328 0.102333,0.04224 0.167553,0.02364 0.28377,-0.08092 z m 1.787119,-2.8386 0.132452,-0.104187 -0.120393,-0.06308 c -0.06622,-0.03469 -0.269722,-0.08774 -0.452236,-0.117883 -0.279359,-0.04614 -0.360254,-0.04293 -0.511487,0.02026 -0.09881,0.04128 -0.179646,0.09606 -0.179646,0.121717 0,0.04419 0.297218,0.170809 0.505927,0.215533 0.259959,0.0557 0.497518,0.02822 0.625383,-0.07236 z m 52.954666,-3.447362 c -0.106,-0.0099 -0.46376,-0.06058 -0.79503,-0.112687 -0.9875,-0.15532 -1.32681,-0.400206 -1.5535,-1.121179 -0.0982,-0.312281 -0.10864,-0.440359 -0.10686,-1.309797 0.004,-1.761809 0.28184,-2.834356 1.00233,-3.863672 0.23936,-0.341951 0.34319,-0.447457 0.53314,-0.541708 l 0.23589,-0.117048 0.77566,0.08046 c 0.67281,0.06979 1.60638,0.2208 1.87211,0.302831 0.37629,0.116161 0.80274,0.904564 0.9709,1.794981 0.20241,1.071716 -0.41296,3.543911 -1.0851,4.359334 -0.37199,0.451294 -0.939,0.613311 -1.84954,0.528488 z m 0.0673,-0.780841 c 0.15419,-0.09763 0.0144,-0.181923 -0.35316,-0.212996 -0.20181,-0.01706 -0.58496,-0.08732 -0.85146,-0.156142 -0.26649,-0.06882 -0.49593,-0.11373 -0.50986,-0.0998 -0.0139,0.01393 0.0264,0.07708 0.0897,0.140347 0.11466,0.114657 0.49432,0.21395 1.22025,0.319128 0.159,0.02304 0.29994,0.04417 0.31319,0.04697 0.0132,0.0028 0.0544,-0.01408 0.0913,-0.0375 z m 1.3454,-0.269155 c 0.225,-0.189321 0.51651,-0.840217 0.71211,-1.590034 0.15855,-0.607782 0.17836,-0.753617 0.2,-1.47298 0.0198,-0.659144 0.01,-0.84739 -0.0576,-1.079206 -0.087,-0.299378 -0.29323,-0.55565 -0.4471,-0.55565 -0.21356,0 -0.62724,0.604937 -0.90365,1.321415 -0.3137,0.813162 -0.37579,1.129751 -0.37874,1.930971 -0.002,0.641447 0.01,0.753876 0.10659,0.999417 0.12625,0.319758 0.34936,0.566547 0.51217,0.566547 0.0622,0 0.17749,-0.05422 0.25624,-0.12048 z m -1.42179,-0.522992 c -0.0158,-0.08336 -0.0318,-0.155841 -0.0354,-0.161078 -0.007,-0.0097 -0.9342,-0.177614 -1.44309,-0.261211 -0.15569,-0.02557 -0.29261,-0.03697 -0.30426,-0.02531 -0.0117,0.01165 -0.007,0.09716 0.0105,0.190005 0.0277,0.147663 0.0538,0.172961 0.20789,0.201898 0.0969,0.01819 0.34426,0.02971 0.54964,0.02558 0.3303,-0.0066 0.37386,0.0026 0.37722,0.08008 0.002,0.0506 0.0141,0.06215 0.0281,0.02735 0.0341,-0.08451 0.25719,-0.07696 0.25719,0.0087 0,0.07187 0.15753,0.116221 0.29894,0.08416 0.0641,-0.01452 0.0758,-0.05191 0.0533,-0.170171 z m -0.0243,-0.836244 c -0.0143,-0.222129 -0.0188,-0.22783 -0.20742,-0.268617 -0.538,-0.116321 -1.54671,-0.262754 -1.58129,-0.229554 -0.0217,0.02082 -0.0326,0.121835 -0.0241,0.224484 0.0117,0.141752 0.0385,0.190972 0.1117,0.204659 0.053,0.0099 0.10721,0.03327 0.12045,0.05191 0.0366,0.05146 1.04936,0.231525 1.33974,0.238196 l 0.2556,0.0059 z m 0.0801,-1.005791 c 0.0185,-0.147986 0.0264,-0.274 0.0176,-0.280031 -0.0319,-0.02184 -1.27455,-0.174024 -1.49761,-0.183409 -0.26996,-0.01136 -0.30307,0.01626 -0.34379,0.286809 l -0.0308,0.20478 0.20534,0.0029 c 0.11294,0.0016 0.48722,0.05269 0.83174,0.113565 0.34451,0.06087 0.66183,0.113781 0.70515,0.117572 0.0608,0.0053 0.0864,-0.05451 0.11239,-0.262172 z m 0.16259,-0.880882 c 0.11186,-0.373342 0.11138,-0.373814 -0.41398,-0.410557 -0.25838,-0.01807 -0.47701,-0.05377 -0.48583,-0.07934 -0.01,-0.02747 -0.12475,-0.03371 -0.28181,-0.01524 -0.20173,0.02371 -0.27581,0.01499 -0.30746,-0.03619 -0.062,-0.100283 -0.17917,0.03486 -0.25836,0.297976 l -0.064,0.212804 0.31767,0.01356 c 0.33871,0.01446 1.26438,0.142877 1.30215,0.180648 0.0664,0.06642 0.14209,0.0018 0.19166,-0.163662 z m 0.31533,-0.893087 c 0.0428,-0.09013 0.0778,-0.185385 0.0778,-0.21167 0,-0.06336 -0.13408,-0.11318 -0.15349,-0.05703 -0.009,0.02524 -0.1787,0.01624 -0.40063,-0.02122 -0.212,-0.03578 -0.56356,-0.07885 -0.78123,-0.09571 l -0.39577,-0.03066 -0.0776,0.15001 c -0.0427,0.08251 -0.0706,0.155013 -0.062,0.161128 0.009,0.0061 0.28953,0.03727 0.62436,0.06924 0.33481,0.03197 0.70342,0.08785 0.81911,0.12419 0.1157,0.03634 0.22415,0.06821 0.24101,0.07083 0.0169,0.0026 0.0656,-0.06898 0.10841,-0.159114 z m 0.47149,-0.6868 c 0.0485,-0.04386 0.0881,-0.09659 0.0881,-0.117173 0,-0.06224 -0.66709,-0.189222 -1.19671,-0.227794 -0.38537,-0.02807 -0.5189,-0.02166 -0.59024,0.02831 -0.0507,0.03552 -0.0922,0.0826 -0.0922,0.104613 0,0.02202 0.22225,0.06688 0.49388,0.0997 0.38741,0.04681 1.04729,0.150541 1.18876,0.186873 0.0112,0.0029 0.06,-0.03067 0.10841,-0.07453 z M 88.586661,48.062448 c 0.01687,-0.122953 0.03062,-0.282001 0.03062,-0.353439 V 47.579123 L 87.713839,47.421747 C 85.444504,47.026439 82.788191,46.582047 80.93201,46.287169 79.818973,46.11035 78.192781,45.849188 77.318247,45.706812 76.443719,45.564435 75.028419,45.337873 74.173136,45.203341 73.317853,45.06881 72.439711,44.928372 72.221705,44.891257 72.0037,44.854137 71.651871,44.799147 71.439864,44.769038 70.009917,44.565976 59.96699,42.915599 59.283893,42.771417 c -0.193062,-0.04075 -0.648396,-0.11929 -1.011853,-0.174534 -0.363458,-0.05524 -1.517293,-0.251964 -2.564079,-0.437157 -1.046787,-0.185192 -2.094208,-0.370174 -2.327603,-0.411072 -0.233394,-0.0409 -0.433926,-0.06479 -0.445627,-0.05308 -0.0117,0.0117 -0.03506,0.184452 -0.05192,0.383895 -0.02169,0.256579 -0.01396,0.37294 0.02643,0.397903 0.0314,0.0194 0.614327,0.128946 1.295399,0.243424 0.681072,0.114478 1.487662,0.253589 1.792423,0.309136 0.569459,0.103791 5.062166,0.852315 6.095213,1.015516 0.318011,0.05024 1.337092,0.211017 2.264624,0.357284 0.927533,0.146268 2.065868,0.331451 2.529634,0.41152 0.463766,0.08007 1.602102,0.264489 2.529634,0.409824 3.547436,0.555847 5.981313,0.946975 9.612611,1.544763 1.205793,0.198499 3.330684,0.546106 4.721984,0.772463 1.391301,0.226356 2.974127,0.483889 3.517395,0.572296 1.353058,0.220184 1.280921,0.222982 1.318493,-0.05114 z m -4.971598,-0.872624 c 0.01198,-0.104075 0.04365,-0.135776 0.147749,-0.147751 0.119059,-0.0137 0.132505,-2.41e-4 0.132505,0.132504 0,0.132757 -0.01501,0.147751 -0.147749,0.147751 -0.132757,0 -0.146203,-0.01344 -0.132505,-0.132504 z m -1.009682,-0.0042 c -0.101156,-0.0642 -0.0067,-0.417389 0.1116,-0.417389 0.07821,0 0.0967,0.03887 0.108895,0.228871 0.01248,0.194135 0.0016,0.22876 -0.07227,0.228134 -0.04782,-3.85e-4 -0.11453,-0.01823 -0.148221,-0.03962 z M 80.345,46.762564 c -0.04903,-0.12771 0.04804,-0.33008 0.166394,-0.347044 0.08785,-0.01259 0.107445,0.0078 0.107445,0.111581 0,0.255064 -0.200245,0.427246 -0.273839,0.235463 z m -1.443384,-0.235387 c -0.01528,-0.03981 -0.01418,-0.126542 0.0022,-0.192734 0.02204,-0.08789 0.06245,-0.120352 0.149743,-0.120352 0.107346,0 0.119544,0.01967 0.119544,0.192734 0,0.174098 -0.01182,0.192734 -0.121973,0.192734 -0.06708,0 -0.134468,-0.03258 -0.149744,-0.07238 z m -1.250825,-0.235841 c -0.04892,-0.127428 0.05134,-0.340909 0.168087,-0.358038 0.09903,-0.01453 0.1064,8.25e-4 0.09259,0.192734 -0.01253,0.174184 -0.03287,0.211058 -0.123628,0.223944 -0.06435,0.0091 -0.120213,-0.01476 -0.137051,-0.05864 z m -1.529077,-0.205734 c -0.01765,-0.01767 -0.0321,-0.104397 -0.0321,-0.192734 0,-0.146704 0.01264,-0.160611 0.146061,-0.160611 0.171819,0 0.22741,0.09908 0.150408,0.268082 -0.05035,0.110473 -0.193093,0.156518 -0.264345,0.08526 z m -1.612917,-0.413558 c 0.01231,-0.170233 0.03309,-0.207378 0.123232,-0.220177 0.09167,-0.01302 0.108412,0.0068 0.108412,0.128563 0,0.207971 -0.04552,0.296394 -0.152476,0.296394 -0.08077,0 -0.0919,-0.02879 -0.07917,-0.20478 z m -1.542434,-0.02973 c -0.03985,-0.02525 -0.05782,-0.11044 -0.04815,-0.228133 0.01215,-0.148476 0.03672,-0.190876 0.117267,-0.202372 0.08056,-0.0115 0.108302,0.01751 0.132505,0.138528 0.05035,0.251813 0.03716,0.333815 -0.0537,0.33302 -0.0464,-3.86e-4 -0.112925,-0.01888 -0.147886,-0.04104 z m -1.582596,-0.376488 c 0.03392,-0.209006 0.137734,-0.329694 0.247404,-0.28761 0.06184,0.02373 0.07143,0.06819 0.04559,0.211369 -0.04343,0.240681 -0.05351,0.253592 -0.197855,0.253592 -0.115872,0 -0.122051,-0.01152 -0.09514,-0.177351 z m -1.490873,-0.179955 c -0.0144,-0.03751 -0.01913,-0.129664 -0.01053,-0.20478 0.01136,-0.09924 0.04198,-0.136574 0.112005,-0.136574 0.07893,0 0.09905,0.03706 0.111184,0.204779 0.01304,0.180291 0.0028,0.20478 -0.08583,0.20478 -0.05536,0 -0.112427,-0.0307 -0.126822,-0.0682 z m -1.503399,-0.377492 c 0.01232,-0.170233 0.03311,-0.207377 0.123229,-0.220177 0.09886,-0.01404 0.108413,0.004 0.108413,0.20478 0,0.204053 -0.009,0.220176 -0.12323,0.220176 -0.115177,0 -0.12226,-0.01338 -0.108412,-0.204779 z m -1.599331,-0.129368 c 0,-0.178199 0.09127,-0.340421 0.191541,-0.340421 0.1042,0 0.114997,0.04532 0.06744,0.283078 -0.02358,0.117923 -0.05493,0.150573 -0.144551,0.150573 -0.08103,0 -0.114435,-0.02722 -0.114435,-0.09323 z m -1.444848,-0.2561 c 0.0013,-0.203805 0.05706,-0.325238 0.149512,-0.325238 0.07543,0 0.09075,0.0366 0.09075,0.216825 0,0.199158 -0.0098,0.216826 -0.120459,0.216826 -0.09299,0 -0.120309,-0.02472 -0.119801,-0.108413 z m -1.485433,-0.357615 c 0.0124,-0.150659 0.03561,-0.187345 0.126725,-0.200257 0.10203,-0.01446 0.110251,-9.7e-5 0.09637,0.168642 -0.01239,0.15066 -0.03561,0.187346 -0.126724,0.200258 -0.102031,0.01446 -0.110251,9.6e-5 -0.09637,-0.168643 z m -1.598968,-0.173728 c 0,-0.136789 0.126838,-0.323914 0.219557,-0.323914 0.08201,0 0.09368,0.20215 0.01966,0.340452 -0.07175,0.134072 -0.239222,0.122494 -0.239222,-0.01654 z M 60.744056,43.66188 c -0.01768,-0.02862 -0.01799,-0.116546 -6.59e-4,-0.195402 0.022,-0.100194 0.06024,-0.143375 0.126938,-0.143375 0.0808,0 0.09315,0.02767 0.08049,0.180287 -0.01496,0.180384 -0.13593,0.273107 -0.206767,0.15849 z m -1.470519,-0.455703 c 0,-0.189371 0.01376,-0.220358 0.09788,-0.220358 0.05383,0 0.107936,0.0271 0.120228,0.06023 0.03881,0.10459 -0.053,0.348676 -0.137251,0.364909 -0.06617,0.01275 -0.08086,-0.02445 -0.08086,-0.20478 z m -1.580962,-0.228666 c 0.01265,-0.175836 0.03245,-0.210992 0.126365,-0.224302 0.103493,-0.01467 0.110305,-10e-4 0.09637,0.192734 -0.01265,0.175836 -0.03245,0.210992 -0.126366,0.224302 -0.103492,0.01467 -0.110305,10e-4 -0.09637,-0.192734 z m 30.993202,3.730483 c 0.01583,-0.09938 0.09367,-0.7878 0.172974,-1.529826 0.123506,-1.155514 0.322091,-2.788224 0.414638,-3.408983 0.01671,-0.111953 0.0075,-0.180687 -0.02408,-0.180687 -0.02803,0 -0.534077,-0.0768 -1.124503,-0.17066 C 86.824244,41.211082 85.275329,40.975101 83.533903,40.718403 82.818381,40.612929 81.39699,40.397336 80.375264,40.239306 77.943778,39.863229 73.866641,39.249724 71.391663,38.887505 65.374406,38.006862 57.001759,36.7997 54.527438,36.456031 c -0.689025,-0.0957 -1.298619,-0.185042 -1.354653,-0.198536 -0.06871,-0.01655 -0.113987,0.0041 -0.139057,0.06337 -0.02044,0.04835 -0.06178,0.96605 -0.09186,2.039337 -0.07088,2.529187 -0.07032,2.605332 0.01961,2.652412 0.03975,0.02081 1.264817,0.234316 2.722368,0.474453 1.45755,0.240137 3.278887,0.544239 4.047414,0.675785 0.768526,0.131545 2.427243,0.404633 3.686037,0.606864 1.258795,0.20223 3.904069,0.634433 5.878387,0.960452 1.97432,0.326019 3.81734,0.627694 4.095598,0.67039 5.40851,0.829876 13.325309,2.112751 14.744154,2.389212 0.251757,0.04906 0.472093,0.09138 0.489645,0.09405 0.01754,0.0027 0.04486,-0.07645 0.06068,-0.175828 z m -1.22489,-0.281793 c -0.19876,-0.03663 -1.239523,-0.208623 -2.312811,-0.38222 -1.073288,-0.173597 -2.742846,-0.445392 -3.71013,-0.603989 -0.967284,-0.158598 -1.905138,-0.311465 -2.084114,-0.339705 -0.2837,-0.04476 -0.329166,-0.06626 -0.354611,-0.167648 -0.03216,-0.128093 0.212557,-2.335927 0.279192,-2.519001 0.04947,-0.135851 0.01869,-0.137629 1.436782,0.08302 0.516767,0.08041 1.319026,0.201804 1.782791,0.26977 1.889823,0.276961 3.559887,0.518532 4.721984,0.683024 0.758047,0.1073 1.255453,0.199214 1.298583,0.23996 0.03842,0.03632 0.07042,0.147646 0.07105,0.247381 0.0022,0.3211 -0.222161,2.394895 -0.268341,2.4821 -0.05453,0.102997 -0.328446,0.105323 -0.860379,0.0073 z m 0.420636,-0.886657 c 0.0061,-0.145755 0.03524,-0.499688 0.06473,-0.786519 0.02952,-0.28683 0.04513,-0.530046 0.03469,-0.540479 -0.0304,-0.03042 -1.976923,-0.336996 -3.33877,-0.525859 -1.393868,-0.193304 -1.925235,-0.274718 -2.529635,-0.387583 -0.351675,-0.06567 -1.178847,-0.18164 -2.108026,-0.295544 -0.139128,-0.01706 -0.254065,-0.0226 -0.255417,-0.01233 -0.104471,0.79512 -0.160326,1.502655 -0.119807,1.517609 0.02748,0.01015 1.144958,0.192005 2.48325,0.404132 2.16154,0.342616 4.5453,0.729423 5.300186,0.860048 0.443173,0.07669 0.456124,0.07024 0.468822,-0.233476 z m 3.982864,-8.464054 c 0.07057,-0.07057 0.207198,-0.260293 0.303621,-0.421606 0.26131,-0.437173 0.488193,-0.743302 0.779814,-1.052186 0.143862,-0.15238 0.231165,-0.277336 0.194006,-0.27768 -0.03716,-3.37e-4 -0.337285,-0.04294 -0.666951,-0.09465 l -0.599387,-0.09402 -0.158879,0.09819 c -0.141454,0.08742 -0.186695,0.09245 -0.412467,0.04578 -0.393992,-0.08143 -1.535448,-0.243234 -1.723187,-0.244272 -0.165476,-9.34e-4 -0.257941,-0.03902 -0.487506,-0.20092 -0.07815,-0.05511 -0.491597,-0.13508 -1.295279,-0.25053 -0.649272,-0.09327 -1.624989,-0.23388 -2.168262,-0.31247 -0.543268,-0.07859 -1.800854,-0.254289 -2.794639,-0.390442 -0.993785,-0.136153 -2.500726,-0.34368 -3.348753,-0.461171 -0.848032,-0.117492 -1.964686,-0.267998 -2.481453,-0.334457 -0.516767,-0.06646 -1.405752,-0.184798 -1.975521,-0.262975 -4.689463,-0.643428 -7.681567,-1.045089 -8.793491,-1.18044 -0.560511,-0.06823 -0.580224,-0.06751 -0.644308,0.02352 -0.08856,0.12579 -0.513779,0.125079 -1.475766,-0.0025 -0.397514,-0.05271 -0.750962,-0.09595 -0.78544,-0.0961 -0.03448,-1.45e-4 -0.09342,-0.07381 -0.130973,-0.1637 -0.07862,-0.188154 -0.07151,-0.186358 -1.558442,-0.393791 -1.152548,-0.160785 -1.127218,-0.162625 -1.304296,0.09475 -0.286348,0.416191 -0.767338,1.596816 -0.684356,1.679798 0.07018,0.07018 2.087563,0.364449 8.655472,1.262548 0.874531,0.119584 1.810925,0.250168 2.080877,0.290188 0.675684,0.100168 0.667807,0.101272 0.770027,-0.107925 0.08707,-0.178193 0.09328,-0.18122 0.449666,-0.219221 0.708851,-0.07558 0.929209,0.01165 1.089463,0.431261 0.04403,0.115261 0.09335,0.209765 0.109627,0.21001 0.01627,2.41e-4 0.394448,0.05445 0.84038,0.120458 0.445933,0.06601 0.84037,0.120015 0.876524,0.120015 0.03617,0 0.132895,-0.126013 0.214987,-0.28003 0.207918,-0.390092 0.522687,-0.733961 0.819954,-0.895753 0.200316,-0.109026 0.31357,-0.137217 0.551244,-0.137217 0.693831,0 1.129182,0.453226 1.284356,1.337092 0.03254,0.185506 0.07198,0.352356 0.08758,0.370778 0.01561,0.01842 0.386126,0.07905 0.823395,0.134738 0.723135,0.09209 1.395181,0.181511 4.167871,0.554587 0.503519,0.06775 2.0213,0.274228 3.372846,0.458839 1.351546,0.184611 2.717549,0.369406 3.035561,0.410656 0.318012,0.04125 0.957648,0.127259 1.421413,0.191131 0.463765,0.06387 0.908257,0.12455 0.98776,0.134839 0.362164,0.04687 0.444564,0.03319 0.572914,-0.09516 z M 76.827743,34.953297 c -0.149584,-0.572825 -0.367595,-0.833245 -0.697552,-0.833245 -0.151261,0 -0.227175,0.03674 -0.394399,0.190883 -0.212689,0.196051 -0.488039,0.637653 -0.432327,0.693364 0.01721,0.01718 0.108934,0.03283 0.2039,0.03478 0.09496,0.0019 0.400324,0.04273 0.678582,0.09062 0.779787,0.134212 0.726719,0.148799 0.641796,-0.176411 z m 18.718322,0.06273 c 0.07155,-0.03723 0.179724,-0.120824 0.240367,-0.185758 l 0.110258,-0.118061 -0.278901,-0.0562 c -0.332513,-0.067 -3.631386,-0.535956 -3.770174,-0.535956 -0.11575,0 -0.184957,0.208898 -0.102222,0.30858 0.03029,0.03653 0.157407,0.08083 0.28243,0.09846 0.125029,0.01763 0.866959,0.129573 1.648736,0.248769 1.186202,0.180858 1.502086,0.236439 1.724951,0.303514 0.0079,0.0024 0.07299,-0.02612 0.144555,-0.06335 z m -6.360029,-1.118693 c 0.01017,-0.104172 -0.0095,-0.159711 -0.06385,-0.180568 -0.04315,-0.01657 -0.830337,-0.128788 -1.749248,-0.24938 -0.91891,-0.120592 -2.212809,-0.294891 -2.875335,-0.38733 -0.662525,-0.09244 -1.594876,-0.221111 -2.071888,-0.285935 -0.477019,-0.06482 -1.72377,-0.23771 -2.770552,-0.384191 -1.046787,-0.146479 -2.618773,-0.362548 -3.493307,-0.480151 -0.874527,-0.117604 -2.294736,-0.311638 -3.156016,-0.431188 -0.861282,-0.11955 -2.010459,-0.273317 -2.553727,-0.341705 -0.543269,-0.06839 -1.817918,-0.244063 -2.832554,-0.390388 -1.014635,-0.146325 -1.912276,-0.259312 -1.994756,-0.25108 -0.189287,0.01889 -0.284966,0.151288 -0.182958,0.253171 0.06436,0.06428 3.173985,0.536929 5.395736,0.82013 0.331261,0.04223 1.372025,0.183828 2.312807,0.314673 0.940784,0.130844 2.144169,0.294212 2.674184,0.36304 0.53002,0.06883 1.408165,0.189449 1.951433,0.268049 0.543268,0.0786 1.659922,0.22926 2.481448,0.334801 1.377926,0.17702 5.947418,0.813367 7.757545,1.080316 0.424016,0.06253 0.857669,0.110203 0.963673,0.105937 0.178614,-0.0072 0.193807,-0.01878 0.207368,-0.158201 z m 5.021368,-0.283956 c 0.04617,-0.0418 0.165113,-0.308081 0.264273,-0.591736 0.349944,-1.001021 0.811367,-2.220205 1.450047,-3.831399 0.355215,-0.896083 0.645842,-1.655013 0.645842,-1.68651 0,-0.09175 -4.717609,-0.760895 -8.046644,-1.14134 -0.702274,-0.08026 -1.808088,-0.210307 -2.45736,-0.288999 -0.649272,-0.07869 -2.111329,-0.252382 -3.24902,-0.385976 -1.137686,-0.133594 -2.753038,-0.328292 -3.58967,-0.432662 -0.836631,-0.104369 -2.214986,-0.26707 -3.063019,-0.361556 -0.848026,-0.09449 -1.791223,-0.203129 -2.095982,-0.241427 -0.304758,-0.0383 -1.323841,-0.156862 -2.264623,-0.263475 -0.940783,-0.106614 -2.577818,-0.303255 -3.637855,-0.436983 -4.037292,-0.509318 -4.188714,-0.525908 -4.243156,-0.464902 -0.07837,0.08781 -0.844576,1.708277 -1.166264,2.466539 -0.473222,1.115446 -1.218606,3.265652 -1.15434,3.329919 0.02382,0.02382 1.635178,0.254529 1.804722,0.258398 0.03262,7.7e-4 0.07258,-0.05827 0.0888,-0.131151 0.06806,-0.305816 0.06343,-0.301192 0.300834,-0.300284 0.275669,0.001 1.915731,0.221755 1.99028,0.267829 0.03365,0.0208 0.04289,0.111158 0.02483,0.242925 -0.02589,0.188875 -0.01804,0.212312 0.07864,0.234904 0.102528,0.02396 3.41591,0.477009 5.817145,0.795399 2.403659,0.318712 3.270903,0.437143 5.974754,0.815918 0.755276,0.105804 1.958662,0.269055 2.674183,0.362779 2.515651,0.329517 8.461469,1.146076 8.826239,1.212136 0.141399,0.02561 0.161056,0.01235 0.255137,-0.172061 0.05607,-0.109895 0.134105,-0.212153 0.173425,-0.227241 0.0393,-0.01509 0.438479,0.02933 0.887022,0.09872 0.44855,0.06938 0.882653,0.126147 0.964679,0.126147 0.08202,0 0.213107,0.03308 0.291291,0.07351 0.12515,0.06472 0.142158,0.0992 0.142158,0.288184 0,0.25489 -0.07588,0.225385 0.98776,0.384095 0.822279,0.122694 1.190545,0.122779 1.325876,2.89e-4 z M 97.8618,33.085841 c 0.27646,-0.193091 0.295337,-0.216565 0.192736,-0.239717 -0.145099,-0.03274 -2.447427,-0.364311 -2.529673,-0.364311 -0.05812,0 -0.199948,0.364526 -0.157555,0.404926 0.01704,0.01622 2.006969,0.396249 2.139837,0.408655 0.0265,0.0025 0.186095,-0.09182 0.354655,-0.209553 z M 63.245944,30.447384 c 0.143083,-0.20428 0.21207,-0.181544 -1.201855,-0.396096 -1.464714,-0.22226 -1.419837,-0.211574 -1.484489,-0.35347 -0.04761,-0.104495 -0.04027,-0.130346 0.05622,-0.197926 0.06104,-0.04275 0.179707,-0.13994 0.263699,-0.215971 l 0.152714,-0.13824 -0.14455,0.08616 c -0.0795,0.04738 -0.229704,0.142119 -0.333779,0.210515 -0.182319,0.119816 -0.215743,0.124356 -0.915486,0.124356 -0.640153,0 -0.752657,0.01221 -0.948913,0.102953 -0.203121,0.09392 -0.319033,0.19167 -0.276052,0.232793 0.0093,0.0089 0.320428,0.05178 0.69144,0.09533 0.371013,0.04355 0.804665,0.102629 0.96367,0.131275 0.475066,0.08559 2.782467,0.414323 2.948507,0.420076 0.108327,0.0037 0.176064,-0.02636 0.228872,-0.101757 z M 60.472609,28.74875 c 0.275226,-0.171602 0.538506,-0.324094 0.585066,-0.338871 0.08446,-0.0268 0.155154,-0.158388 0.233521,-0.43464 l 0.04141,-0.145967 -0.400891,0.03515 c -0.22049,0.01933 -0.462358,0.06694 -0.537484,0.105784 -0.300045,0.15516 -1.217058,0.909441 -1.217058,1.001081 0,0.03741 0.216601,0.0679 0.578202,0.08138 0.1899,0.0071 0.278967,-0.03066 0.717236,-0.303918 z"
       id="path408" /></g></svg>
